<?xml version="1.0" standalone="no"?>
<!DOCTYPE svg PUBLIC "-//W3C//DTD SVG 20010904//EN"
 "http://www.w3.org/TR/2001/REC-SVG-20010904/DTD/svg10.dtd">
<svg version="1.0" xmlns="http://www.w3.org/2000/svg"
 width="256.000000pt" height="256.000000pt" viewBox="0 0 256.000000 256.000000"
 preserveAspectRatio="xMidYMid meet">
<metadata>
Created by potrace 1.11, written by Peter Selinger 2001-2013
</metadata>
<g transform="translate(0.000000,256.000000) scale(0.100000,-0.100000)"
fill="#000000" stroke="none">
<path d="M0 1280 l0 -1280 1280 0 1280 0 0 1280 0 1280 -1280 0 -1280 0 0
-1280z m1082 616 c156 -34 230 -113 232 -246 1 -134 -91 -233 -236 -256 -21
-4 -41 -10 -44 -15 -2 -4 35 -67 83 -139 l87 -131 20 34 c12 18 95 156 186
305 l165 272 162 0 163 0 0 -350 0 -350 65 0 65 0 0 -95 0 -95 -65 0 -65 0 0
-110 0 -110 -100 0 -100 0 0 110 0 110 -275 0 -275 0 0 86 0 85 -122 184 -123
184 -147 1 -148 0 0 -190 0 -190 -40 0 -40 0 0 460 0 460 243 0 c170 0 262 -5
309 -14z"/>
<path d="M610 1556 l0 -106 181 0 c195 0 255 9 294 46 33 30 34 82 3 111 -42
38 -87 46 -285 51 l-193 4 0 -106z"/>
<path d="M1614 1163 l-141 -198 140 -3 c77 -1 141 -1 144 1 2 2 2 93 1 201
l-3 196 -141 -197z"/>
</g>
</svg>
